<?xml version="1.0" encoding="UTF-8"?><svg id="a" xmlns="http://www.w3.org/2000/svg" _viewBox="0 0 1920 581.64" viewBox="117 55 1805 471.64"><defs><style>.b{fill:#00a6a6;}.c{fill:#e5f6f6;}.d{fill:#a6e0e0;}.e{fill:#094074;}</style></defs><g transform="scale(0.8) translate(150, 72.5)"><circle class="c" cx="290.82" cy="290.82" r="290.82"/><path class="d" d="M563.25,188.86c-39.23,2.44-41.64,24.75-85.39,24.75-46.27,0-46.27-24.98-92.55-24.98s-46.27,24.98-92.53,24.98-46.27-24.98-92.54-24.98-46.27,24.98-92.53,24.98-46.26-23.77-89.26-24.92C6.54,220.47,0,254.88,0,290.82,0,451.44,130.21,581.64,290.82,581.64s290.82-130.21,290.82-290.82c0-35.88-6.51-70.23-18.39-101.96Z"/><path class="e" d="M60.15,303.51c15.21,0,30.86,9.89,41.41,9.89,1.21,0,2.4-.03,3.58-.08l-2.1-4.2,12.52-13.02c12.19,2.31,23.14,10.85,23.14,10.85h0c.95-.25,1.92-.5,2.89-.75v-4.11c0-2.16,.99-4.2,2.7-5.53,4.62-3.59,14.16-10.33,20.69-10.33,7.52,0,19.04,8.94,22.43,11.71,1.88-.16,3.8-.31,5.77-.43,0-.03-.02-.06-.03-.09-5.93-20.27,6.92-22.23,6.92-22.23,11.53,5.11,21.43,22.23,21.43,22.23h0c26.32,2.56,50.23,14.5,57.43,18.39,1.36,.73,2.2,2.15,2.2,3.7,0,4.66-24.42,19.39-50.63,25.49-.61,3.38-1.69,8.82-3.09,13.55-.22,.76-1.29,.79-1.57,.04l-3.53-9.59,.89-2.55c-4.74,.78-9.48,1.23-14.07,1.23-9.04,0-18.71-1.14-28.23-2.86l-18.46,8.88c-4.24,2.04-9.29,1.28-12.75-1.9l-12.66-11.66c-1.27-1.17-1.07-3.23,.41-4.13l2.53-1.54c-2.73-.84-5.25-1.64-7.53-2.36l-18.85,8.11c-1.69,.73-3.66,.32-4.93-1.01l-7.78-8.21c-1.21-1.28-1.61-3.13-1.02-4.79l.42-1.2c-3.69-.1-6.97,.23-9.61,1.11-7.41,2.47-23.39,8.24-28.34,8.24s0-10.38,0-15.32-5.88-15.49-2.2-15.49Z"/><path class="e" d="M289.29,138.64s32.67-.56,44.44,5.43c11.77,6,23.81,17.51,44.25,17.51s50.81-14.41,50.81-14.41l1.39-4.67-28.73-8.42s18.07-18.45,18.07-41.08c0-14.51-.91-25.36-1.56-31.27-.2-1.8-2.53-2.38-3.57-.89l-34.98,50.21s-19.83-43.45-53.08-62.44c-1.38-.79-3.08,.24-2.97,1.83,.64,8.72,3.12,31.88,12.09,50.4,11.29,23.3,16.5,33.46,16.5,33.46,0,0-21.9-.35-31.55-.35s-9.07-4.81-16.73-4.81c-8.04,0-14.39,8.01-14.39,8.01v1.48Z"/><g><path class="b" d="M487.43,292.7c-3.56-15.13-7.21-30.65-4.77-46.23,.28-1.15-1.42-1.76-1.95-.7-9,19.22-2.02,45.52,6.59,63.85,1.15,2.32,4.79,.93,4.1-1.57-1.34-5.08-2.71-10.25-3.98-15.36Z"/><path class="b" d="M517.27,246.01c-.11-.81-1.38-.7-1.37,.11-1.13,18.58-10.36,35.28-19.64,51.18-2.1-8.52,1.95-17.26,5.92-25.32,4.77-11.82,5.94-25.1,3.39-37.56-.19-1.05-1.83-.89-1.84,.17-.41,11.94-2.53,24.03-7.39,34.88-2.83,5.77-6.2,11.42-6.68,18.09-.46,5.16,.61,10.62,3.54,14.96-.29,.49-.58,.99-.86,1.48-.99,1.53,1.22,3.12,2.37,1.73,.18-.23,.36-.47,.54-.7,.46,.47,.94,.93,1.46,1.36,1.75,1.39,3.91-.98,2.45-2.64-.49-.72-.91-1.44-1.28-2.17,5.4-7.35,9.94-15.27,13.62-23.64,4.25-9.94,7.59-21.02,5.78-31.94Z"/><path class="b" d="M461.07,300.04c-7.39-13.68-14.97-27.7-16.69-43.37-.03-.46-.35-.86-.82-.96-.56-.12-1.12,.23-1.24,.79-3.66,20.9,9.95,44.47,23.05,59.91,1.72,1.94,4.86-.35,3.55-2.58-2.62-4.55-5.29-9.18-7.85-13.78Z"/><path class="b" d="M476.37,308.09c-10.14-7.55-9.03-19.8-7.66-30.99,.6-12.73-2.7-25.65-9.23-36.57-.53-.93-2.02-.23-1.68,.77,3.56,11.4,5.56,23.52,4.57,35.36-.76,6.38-2.08,12.83-.32,19.28,1.69,6.67,6.1,12.95,12.87,15.45,2.11,.74,3.37-2.22,1.44-3.3Z"/><path class="b" d="M164.45,391.61c-22.61,17.79-39.2,46.73-35.02,76.19,.53,3.97,6.42,3.56,6.39-.44-.04-2.55-.16-5.35-.27-7.9,.23-2.44,.27-5.11,.49-7.54,2.37-18.75,11.25-36.18,22.67-51.13,2.06-2.85,4.36-5.54,6.67-8.18,.55-.6-.31-1.47-.93-1Z"/><path class="b" d="M229.89,262.13c-7.01,4.9-14.03,10.19-19.27,17.11-5.28,6.91-7.24,16.09-9.87,23.91-1.63,5.11-4.41,9.07-8.88,12.01-4.56,2.57-9.2,5.09-13.84,7.65-.49-3.26-1.15-6.48-1.95-9.62-2.51-10.4-4.99-20.74-4.21-31.42,.67-10.5,4.54-20.89,10.86-29.62-11.29,12.15-15.8,29.55-13.85,45.85,.96,9.3,3.41,18.32,4.27,27.51-13.69,7.7-27.11,16.07-38.03,27.5-8.61,8.6-16.25,18.61-21.75,29.6-.13-1.63-.27-3.25-.4-4.85,.08-4.13,2.23-8.04,3.67-13.1,1.35-4.44,2.09-9.18,2.17-13.81,.14-5.71-.75-11.22-1.52-16.75,7.75-10.47,15.42-21.01,21.96-32.3,2.87-5.46,5.79-10.9,6.07-17.38-.14-21-5.38-31.12,11.61-47.54,.21-.22,.23-.58,.02-.82-.22-.25-.6-.28-.85-.06-4.39,3.82-8.65,8.02-11.61,13.36-5.62,10.84-2.83,23.43-3.68,34.9-.11,2.44-1.06,5.05-2.14,7.55-5.7,12.08-14.24,22.5-22.33,33.28,0-.17-.02-.34-.03-.52-1.38-17.17,3.02-33.95,9.79-49.66-11.14,13.27-17.02,32.24-16.25,49.94,.04,2.72,.28,5.44,.58,8.16-4.96,6.6-10.37,13.66-15.59,21.05-5.94-32.8,3.8-67.77,23.29-94.61,.21-.27,.19-.67-.06-.92-.27-.27-.71-.26-.98,.01-20.04,21.22-31.61,52.35-30.37,81.54,.31,7.24,1.28,14.49,2.91,21.58-10.66,16.12-19.48,33.48-20.29,50.69-.43,26.4,13.94,51.6,35.72,66.09,.15,.39,.29,.79,.44,1.17,1.58,3.48,6.33,1.7,6-1.5,2.5-3.77,4.58-7.75,6.22-11.9,2.46,4.56,5.18,8.98,8.11,13.23,1.46,1.97,4.28-.25,2.96-2.1-3.34-5.45-6.4-11.22-9.04-17.2,3.55-12.43,3.51-25.85,.07-38.45-.42-1.55-.88-3.07-1.37-4.58,13.16-14.72,31.94-24.34,45.91-40.37,12.14-12.79,15.73-30.31,14.38-47.41,5.43-3.17,10.89-6.31,16.26-9.65,5.06-3.38,8.9-9.25,10.33-15.09,2.89-11.04,4.79-21.63,12.98-30.04,3.73-4.12,7.94-7.89,12.18-11.62,.2-.17,.24-.48,.09-.7-.17-.24-.49-.3-.74-.14Zm-118.71,153.83c-.25,.3-.5,.61-.74,.91,.02-.68,.03-1.37,.07-2.05,.01-.17,.03-.35,.05-.52,.21,.55,.42,1.1,.63,1.66Zm-11.89-56.84c3.89-5.8,8-11.46,12.16-17.09,.27,2.88,.43,5.76,.3,8.61,.04,8.97-4.48,16.23-6.13,24.99-.48,3.98,.3,8.16,.53,12.11-3.03-6.66-5.87-13.29-7.92-20.17-.51-1.56-.96-3.14-1.39-4.72,.82-1.25,1.63-2.49,2.45-3.72Zm-23.72,53.41c1.09-15.37,8.27-29.15,16.43-42.17,3.23,10.61,8.17,20.56,12.79,30.56-1.11,4.11-2.7,8.12-4.29,12.04-5.87,17.25-3.39,40.35,2.28,58.72-16.92-14.69-28.05-36.59-27.21-59.16Zm33.98,59.03c-2.56-8.91-4.12-18.25-4.64-27.58,.39-2.43,.97-4.82,1.73-7.15,1.67,7.67,4.27,15.14,7.56,22.3-1.11,4.29-2.65,8.47-4.65,12.44Zm4.09-48.16c2.47,8.66,3.23,17.81,2.22,26.73-2.51-7.33-4.29-14.89-5.06-22.51,.88-1.5,1.81-2.95,2.8-4.35,.01,.04,.03,.09,.04,.13Zm54.59-63.48c-11.5,22.04-35.34,32.61-52.15,50.38-1.07-2.78-2.21-5.52-3.4-8.22,4.49-16.89,14.87-32.1,27.1-44.43,9.87-10.36,21.59-17.99,33.69-25.17,.05,9.37-.98,19.02-5.24,27.45Z"/></g><path class="e" d="M69.18,479.09c53.34,62.74,132.84,102.56,221.64,102.56,160.62,0,290.82-130.21,290.82-290.82,0-6.31-.22-12.57-.62-18.79-82.07,2.89-174.08,90-256.68,132.24-94.41,48.28-203.83,67.84-255.17,74.81Z"/></g><g><path class="e" d="M657.73,358.88c10.46,0,16.76,4.09,16.76,14.11,0,8.24-5.3,13.04-11.32,13.68v.29c2.01,.93,3.8,2.58,6.09,6.45l9.24,15.69h-6.81l-9.1-16.05c-1.93-3.29-4.15-4.8-7.81-4.8h-3.94v20.85h-5.73v-50.22h12.61Zm-6.88,24.43h6.45c6.95,0,11.32-2.72,11.32-9.67s-4.08-9.67-11.68-9.67h-6.09v19.34Z"/><path class="e" d="M712.47,406.1c-2.58,1.94-6.66,3.51-12.25,3.51-11.1,0-17.12-5.66-17.12-20.2s7.88-19.92,16.55-19.92c9.24,0,14.19,6.02,14.19,15.26,0,1.93-.14,4.23-.43,6.73h-24.79c.5,9.6,4.51,13.25,12.32,13.25,3.87,0,7.38-1.51,9.03-2.94l2.51,4.3Zm-23.79-19.2h19.56c.07-.79,.07-1.79,.07-2.22,0-6.66-2.87-10.39-9.17-10.39-5.09,0-9.96,3.22-10.46,12.61Z"/><path class="e" d="M720.93,380.3c0-5.59,4.8-10.82,13.33-10.82,4.66,0,9.03,1.65,11.39,4.15l-3.58,3.87c-1.79-1.86-4.94-3.15-7.95-3.15-5.3,0-7.67,2.65-7.67,5.8,0,8.74,19.7,5.23,19.7,18.48,0,5.37-4.51,11.11-13.9,11.11-6.45,0-11.32-2.44-13.76-4.94l3.44-4.15c2.36,2.44,6.09,4.3,10.6,4.3,5.45,0,8.1-2.87,8.1-6.16,0-8.81-19.7-5.3-19.7-18.49Z"/><path class="e" d="M755.68,398.72v-24.07h-5.8v-3.58l5.8-1.07,1.72-10.1h3.8v10.25h10.75v4.51h-10.75v23.79c0,4.37,2.22,6.16,5.66,6.16,3.15,0,4.94-.72,5.95-1.36l1.58,4.44c-1.5,.86-4.08,1.79-8.74,1.79-6.45,0-9.96-3.37-9.96-10.75Z"/><path class="e" d="M777.89,389.69c0-12.04,4.51-20.28,16.34-20.28s15.98,8.03,15.98,19.92-4.59,20.42-16.41,20.42-15.91-8.1-15.91-20.06Zm16.34,15.19c7.52,0,10.25-4.94,10.25-15.12s-3.15-15.55-10.68-15.55-10.17,4.94-10.17,15.04,3.15,15.62,10.6,15.62Z"/><path class="e" d="M837.71,375.65c-1.43-.43-2.94-.58-4.37-.58-3.8,0-7.74,1.51-9.6,5.02v29.02h-5.52v-38.98h4.23l1.22,4.3h.29c1.72-2.79,5.3-4.94,9.81-4.94,1.79,0,3.08,.14,3.94,.36v5.8Z"/><path class="e" d="M866.15,381.38v17.62c0,3.51,1.07,5.88,3.8,5.88h1v4.08c-.5,.29-1.29,.43-2.01,.43-3.87,0-6.16-2.08-7.09-4.73h-.29c-1.86,2.15-5.02,5.23-11.61,5.23-7.24,0-11.25-5.09-11.25-10.39,0-8.6,8.45-12.83,22.28-12.61v-4.23c0-6.38-3.08-8.24-8.24-8.24s-7.74,2.87-8.88,4.73l-4.08-3.22c1.36-1.86,5.02-6.38,13.11-6.38s13.25,3.65,13.25,11.82Zm-5.16,9.89c-9.39-.36-16.76,1.94-16.76,7.81,0,3.44,2.51,6.24,7.02,6.24s7.95-2.65,9.74-5.3v-8.74Z"/><path class="e" d="M879.34,398.72v-24.07h-5.8v-3.58l5.8-1.07,1.72-10.1h3.8v10.25h10.75v4.51h-10.75v23.79c0,4.37,2.22,6.16,5.66,6.16,3.15,0,4.94-.72,5.95-1.36l1.58,4.44c-1.5,.86-4.08,1.79-8.74,1.79-6.45,0-9.96-3.37-9.96-10.75Z"/><path class="e" d="M907.92,354.66c2.36,0,4.15,1.72,4.15,4.09s-1.79,4.01-4.15,4.01c-2.22,0-4.01-1.72-4.01-4.01s1.79-4.09,4.01-4.09Zm-2.44,15.47h5.59v38.98h-5.59v-38.98Z"/><path class="e" d="M920.46,389.69c0-12.04,4.51-20.28,16.33-20.28s15.98,8.03,15.98,19.92-4.59,20.42-16.41,20.42-15.91-8.1-15.91-20.06Zm16.33,15.19c7.52,0,10.25-4.94,10.25-15.12s-3.15-15.55-10.67-15.55-10.17,4.94-10.17,15.04,3.15,15.62,10.6,15.62Z"/><path class="e" d="M990.24,409.11h-5.59v-25.58c0-5.95-2.94-9.24-8.38-9.24-4.8,0-8.53,3.16-9.89,6.95v27.87h-5.59v-38.98h4.23l1.15,4.09h.29c1.07-1.36,5.02-4.87,11.1-4.87,7.81,0,12.47,4.23,12.68,12.9v26.87Z"/><path class="e" d="M1016.9,389.69c0-12.04,4.51-20.28,16.33-20.28s15.98,8.03,15.98,19.92-4.59,20.42-16.41,20.42-15.91-8.1-15.91-20.06Zm16.33,15.19c7.52,0,10.25-4.94,10.25-15.12s-3.15-15.55-10.67-15.55-10.17,4.94-10.17,15.04,3.15,15.62,10.6,15.62Z"/><path class="e" d="M1075.79,359.67c-1.43-.5-3.01-.72-5.23-.72-3.73,0-5.16,1.72-5.16,5.23v5.95h10.1v4.37h-10.17v34.6h-5.59v-34.6h-6.45v-4.37h6.52v-5.87c0-6.02,3.51-10.17,11.1-10.17,2.72,0,4.51,.36,6.02,.86l-1.15,4.73Z"/><path class="e" d="M1122.93,396.28c0-11.39-23.93-8.81-23.93-24.65,0-7.59,6.52-13.47,15.55-13.47,5.66,0,10.1,1.86,12.97,4.23l-3.51,4.44c-2.51-2.01-5.59-3.44-9.81-3.44-5.88,0-9.39,3.3-9.39,7.88,0,11.61,23.93,9.17,23.93,24.65,0,7.6-6.02,13.9-16.76,13.9-7.59,0-12.82-2.72-15.69-5.3l3.37-4.59c2.79,2.29,6.81,4.73,12.83,4.73,6.81,0,10.46-3.72,10.46-8.38Z"/><path class="e" d="M1163.7,406.1c-2.58,1.94-6.66,3.51-12.25,3.51-11.1,0-17.12-5.66-17.12-20.2s7.88-19.92,16.55-19.92c9.24,0,14.19,6.02,14.19,15.26,0,1.93-.14,4.23-.43,6.73h-24.79c.5,9.6,4.51,13.25,12.32,13.25,3.87,0,7.38-1.51,9.03-2.94l2.51,4.3Zm-23.79-19.2h19.56c.07-.79,.07-1.79,.07-2.22,0-6.66-2.87-10.39-9.17-10.39-5.09,0-9.96,3.22-10.46,12.61Z"/><path class="e" d="M1198.81,381.38v17.62c0,3.51,1.07,5.88,3.8,5.88h1v4.08c-.5,.29-1.29,.43-2.01,.43-3.87,0-6.16-2.08-7.09-4.73h-.29c-1.86,2.15-5.02,5.23-11.61,5.23-7.24,0-11.25-5.09-11.25-10.39,0-8.6,8.46-12.83,22.28-12.61v-4.23c0-6.38-3.08-8.24-8.24-8.24s-7.74,2.87-8.88,4.73l-4.08-3.22c1.36-1.86,5.02-6.38,13.11-6.38s13.25,3.65,13.25,11.82Zm-5.16,9.89c-9.39-.36-16.76,1.94-16.76,7.81,0,3.44,2.51,6.24,7.02,6.24s7.95-2.65,9.74-5.3v-8.74Z"/><path class="e" d="M1238.78,409.39c0,10.25-6.3,15.33-16.05,15.33-7.38,0-11.25-2.58-12.82-4.15l3.22-4.44c1.93,1.93,5.01,3.65,10.25,3.65,7.09,0,9.96-3.44,9.96-10.39v-3.58h-.29c-1.22,1.07-4.51,3.08-9.53,3.08-8.02,0-14.83-5.01-14.83-18.27,0-12.46,6.09-20.85,18.99-20.85,4.94,0,8.74,.86,11.1,2.01v37.61Zm-11.89-34.75c-7.52,0-12.54,4.94-12.54,15.26,0,11.18,5.16,14.11,10.67,14.11,3.08,0,6.38-1.36,8.24-3.8v-24.5c-1.65-.64-3.87-1.07-6.38-1.07Z"/><path class="e" d="M1268.38,375.65c-1.43-.43-2.94-.58-4.37-.58-3.8,0-7.74,1.51-9.6,5.02v29.02h-5.52v-38.98h4.23l1.22,4.3h.29c1.72-2.79,5.3-4.94,9.81-4.94,1.79,0,3.08,.14,3.94,.36v5.8Z"/><path class="e" d="M1296.82,381.38v17.62c0,3.51,1.07,5.88,3.8,5.88h1v4.08c-.5,.29-1.29,.43-2.01,.43-3.87,0-6.16-2.08-7.09-4.73h-.29c-1.86,2.15-5.02,5.23-11.61,5.23-7.24,0-11.25-5.09-11.25-10.39,0-8.6,8.46-12.83,22.28-12.61v-4.23c0-6.38-3.08-8.24-8.24-8.24s-7.74,2.87-8.88,4.73l-4.08-3.22c1.36-1.86,5.02-6.38,13.11-6.38s13.25,3.65,13.25,11.82Zm-5.16,9.89c-9.39-.36-16.76,1.94-16.76,7.81,0,3.44,2.51,6.24,7.02,6.24s7.95-2.65,9.74-5.3v-8.74Z"/><path class="e" d="M1307.42,380.3c0-5.59,4.8-10.82,13.33-10.82,4.66,0,9.03,1.65,11.39,4.15l-3.58,3.87c-1.79-1.86-4.94-3.15-7.95-3.15-5.3,0-7.67,2.65-7.67,5.8,0,8.74,19.7,5.23,19.7,18.48,0,5.37-4.51,11.11-13.9,11.11-6.45,0-11.32-2.44-13.76-4.94l3.44-4.15c2.36,2.44,6.09,4.3,10.6,4.3,5.44,0,8.1-2.87,8.1-6.16,0-8.81-19.7-5.3-19.7-18.49Z"/><path class="e" d="M1339.59,380.3c0-5.59,4.8-10.82,13.33-10.82,4.66,0,9.03,1.65,11.39,4.15l-3.58,3.87c-1.79-1.86-4.94-3.15-7.95-3.15-5.3,0-7.67,2.65-7.67,5.8,0,8.74,19.7,5.23,19.7,18.48,0,5.37-4.51,11.11-13.9,11.11-6.45,0-11.32-2.44-13.76-4.94l3.44-4.15c2.36,2.44,6.09,4.3,10.6,4.3,5.44,0,8.1-2.87,8.1-6.16,0-8.81-19.7-5.3-19.7-18.49Z"/><path class="e" d="M1410.52,359.67c-1.43-.5-3.01-.72-5.23-.72-3.73,0-5.16,1.72-5.16,5.23v5.95h10.1v4.37h-10.17v34.6h-5.59v-34.6h-6.45v-4.37h6.52v-5.87c0-6.02,3.51-10.17,11.1-10.17,2.72,0,4.51,.36,6.02,.86l-1.15,4.73Z"/><path class="e" d="M1413.53,389.69c0-12.04,4.51-20.28,16.33-20.28s15.98,8.03,15.98,19.92-4.59,20.42-16.41,20.42-15.91-8.1-15.91-20.06Zm16.33,15.19c7.52,0,10.25-4.94,10.25-15.12s-3.15-15.55-10.67-15.55-10.17,4.94-10.17,15.04,3.15,15.62,10.6,15.62Z"/><path class="e" d="M1473.36,375.65c-1.43-.43-2.94-.58-4.37-.58-3.8,0-7.74,1.51-9.6,5.02v29.02h-5.52v-38.98h4.23l1.22,4.3h.29c1.72-2.79,5.3-4.94,9.81-4.94,1.79,0,3.08,.14,3.94,.36v5.8Z"/><path class="e" d="M1514.41,409.82c-11.96,0-19.2-7.09-19.2-25.58s7.67-26.08,19.77-26.08,19.2,7.09,19.2,25.58-7.74,26.08-19.77,26.08Zm.36-5.16c8.31,0,13.54-4.87,13.54-20.42s-5.37-20.92-13.76-20.92-13.47,4.8-13.47,20.42,5.37,20.92,13.68,20.92Z"/><path class="e" d="M1557.18,369.49c6.23,0,9.67,2.44,11.1,4.09l-3.73,4.08c-1.58-1.65-3.87-3.22-7.67-3.22-6.3,0-10.53,4.15-10.53,15.04s4.01,15.33,10.53,15.33c3.58,0,6.02-1.29,7.59-3.08l3.44,3.87c-1.58,1.79-4.87,4.15-11.53,4.15-9.53,0-15.76-5.52-15.76-19.56s7.02-20.7,16.55-20.7Z"/><path class="e" d="M1602.03,406.1c-2.58,1.94-6.66,3.51-12.25,3.51-11.1,0-17.12-5.66-17.12-20.2s7.88-19.92,16.55-19.92c9.24,0,14.19,6.02,14.19,15.26,0,1.93-.14,4.23-.43,6.73h-24.79c.5,9.6,4.51,13.25,12.32,13.25,3.87,0,7.38-1.51,9.03-2.94l2.51,4.3Zm-23.79-19.2h19.56c.07-.79,.07-1.79,.07-2.22,0-6.66-2.87-10.39-9.17-10.39-5.09,0-9.96,3.22-10.46,12.61Z"/><path class="e" d="M1637.14,381.38v17.62c0,3.51,1.07,5.88,3.8,5.88h1v4.08c-.5,.29-1.29,.43-2.01,.43-3.87,0-6.16-2.08-7.09-4.73h-.29c-1.86,2.15-5.02,5.23-11.61,5.23-7.24,0-11.25-5.09-11.25-10.39,0-8.6,8.46-12.83,22.28-12.61v-4.23c0-6.38-3.08-8.24-8.24-8.24s-7.74,2.87-8.88,4.73l-4.08-3.22c1.36-1.86,5.02-6.38,13.11-6.38s13.25,3.65,13.25,11.82Zm-5.16,9.89c-9.39-.36-16.76,1.94-16.76,7.81,0,3.44,2.51,6.24,7.02,6.24s7.95-2.65,9.74-5.3v-8.74Z"/><path class="e" d="M1678.55,409.11h-5.59v-25.58c0-5.95-2.94-9.24-8.38-9.24-4.8,0-8.53,3.16-9.89,6.95v27.87h-5.59v-38.98h4.23l1.15,4.09h.29c1.07-1.36,5.02-4.87,11.1-4.87,7.81,0,12.47,4.23,12.68,12.9v26.87Z"/><path class="e" d="M1719.46,403.66c.14-1.22,2.87-11.82,3.08-12.82l7.88-31.96h8.24l8.17,32.31c.29,1.14,2.94,11.46,3.01,12.39h.29c.07-.93,2.79-11.68,3.08-12.97l8.1-31.74h5.66l-12.9,50.22h-8.31l-8.02-32.1c-.36-1.43-3.01-11.9-3.15-12.97h-.29c-.14,1.14-2.65,11.61-2.94,12.54l-8.17,32.53h-8.24l-12.97-50.22h5.95l8.02,31.09c.29,1.15,3.15,12.54,3.22,13.68h.29Z"/><path class="e" d="M1799.13,406.1c-2.58,1.94-6.66,3.51-12.25,3.51-11.1,0-17.12-5.66-17.12-20.2s7.88-19.92,16.55-19.92c9.24,0,14.19,6.02,14.19,15.26,0,1.93-.14,4.23-.43,6.73h-24.79c.5,9.6,4.51,13.25,12.32,13.25,3.87,0,7.38-1.51,9.03-2.94l2.51,4.3Zm-23.79-19.2h19.56c.07-.79,.07-1.79,.07-2.22,0-6.66-2.87-10.39-9.17-10.39-5.09,0-9.96,3.22-10.46,12.61Z"/><path class="e" d="M1834.24,381.38v17.62c0,3.51,1.07,5.88,3.8,5.88h1v4.08c-.5,.29-1.29,.43-2.01,.43-3.87,0-6.16-2.08-7.09-4.73h-.29c-1.86,2.15-5.02,5.23-11.61,5.23-7.24,0-11.25-5.09-11.25-10.39,0-8.6,8.46-12.83,22.28-12.61v-4.23c0-6.38-3.08-8.24-8.24-8.24s-7.74,2.87-8.88,4.73l-4.08-3.22c1.36-1.86,5.02-6.38,13.11-6.38s13.25,3.65,13.25,11.82Zm-5.16,9.89c-9.39-.36-16.76,1.94-16.76,7.81,0,3.44,2.51,6.24,7.02,6.24s7.95-2.65,9.74-5.3v-8.74Z"/><path class="e" d="M1852.15,354.73v45.14c0,3.44,1.15,4.94,4.08,4.94,1.43,0,2.51-.43,3.22-.79v4.73c-1.43,.64-3.37,.86-4.87,.86-5.37,0-7.95-3.15-7.95-8.24v-46.64h5.52Z"/><path class="e" d="M1866.27,398.72v-24.07h-5.8v-3.58l5.8-1.07,1.72-10.1h3.8v10.25h10.75v4.51h-10.75v23.79c0,4.37,2.22,6.16,5.66,6.16,3.15,0,4.94-.72,5.95-1.36l1.58,4.44c-1.5,.86-4.08,1.79-8.74,1.79-6.45,0-9.96-3.37-9.96-10.75Z"/><path class="e" d="M1920,382.17v26.94h-5.59v-26.08c0-4.87-2.58-8.6-7.88-8.6s-9.03,3.51-10.39,6.88v27.8h-5.59v-54.38h5.59v19.7h.29c1.15-1.36,4.66-4.94,11.25-4.94,7.52,0,12.32,4.73,12.32,12.68Z"/></g><g><path class="e" d="M689.92,171.4c30.45,0,47.74,11.59,47.74,40.47,0,23.97-12.97,35.17-29.08,38.31v.79c7.27,3.54,11.79,8.65,18.27,20.24l21.02,37.92h-35.76l-22.79-44.8c-2.55-4.91-6.29-6.48-12.57-6.48h-1.97v51.28h-29.67V171.4h44.8Zm-15.13,62.67h11.4c15.91,0,21.02-6.88,21.02-19.65s-7.47-18.27-20.63-18.27h-11.79v37.92Z"/><path class="e" d="M845.71,298.91c-8.64,7.08-19.45,12.38-40.67,12.38-34.97,0-52.85-19.65-52.85-57.96,0-35.96,20.04-57.37,52.06-57.37,28.29,0,44.6,17.88,44.6,44.99,0,5.7-.2,11.2-1.38,19.84h-66.21c.39,17.49,8.25,27.11,27.11,27.11,11.98,0,20.24-5.7,24.36-10.02l12.97,21.02Zm-63.85-57.76h39.1v-2.95c0-12.97-5.5-19.84-17.49-19.84-13.36,0-21.22,9.82-21.61,22.79Z"/><path class="e" d="M926.46,272.39c0-21.81-63.46-18.86-63.46-62.28,0-22.79,20.04-40.67,48.53-40.67,22.99,0,37.33,10.61,41.85,16.5l-18.66,22.2c-3.34-4.12-11.2-12.77-25.74-12.77-9.82,0-15.33,5.5-15.33,12.38,0,22.2,63.26,18.86,63.26,62.67,0,20.63-17.09,40.67-52.06,40.67-26.52,0-43.03-11.79-47.74-17.09l17.09-24.76c5.89,5.89,17.88,16.5,34.58,16.5,11.98,0,17.68-6.09,17.68-13.36Z"/><path class="e" d="M1024.69,311.09c-34.38,0-55.99-18.47-55.99-69.94s24.36-71.71,57.76-71.71,56.39,18.86,56.39,70.14-24.56,71.51-58.15,71.51Zm1.77-24.95c15.72,0,25.35-11.2,25.35-45.19s-10.41-46.56-27.11-46.56c-14.74,0-25.15,10.61-25.15,44.8s10.22,46.96,26.92,46.96Z"/><path class="e" d="M1139.22,275.53c1.77-15.91,3.93-23.77,6.68-36.74l14.74-67.39h35.56l15.52,67.19c3.54,15.13,5.3,23.77,6.88,36.54h.79c.98-12.18,3.54-27.51,7.66-44.8l13.75-58.94h29.86l-35.17,137.73h-35.36l-13.95-61.1c-4.32-18.66-6.29-29.47-7.86-42.83h-.79c-1.96,14.15-3.73,24.36-6.68,36.54l-15.91,67.39h-35.56l-34.97-137.73h32.42l13.56,55.6c3.73,15.32,7.47,33.79,8.06,48.53h.79Z"/><path class="e" d="M1409.16,259.23v-87.82h30.06v83.5c0,42.04-25.74,56.19-56.19,56.19-35.56,0-50.49-21.41-50.49-49.71v-89.98h30.06v84.09c0,19.65,6.88,30.45,24.56,30.45,14.34,0,22-7.66,22-26.72Z"/><path class="e" d="M1495.6,309.13h-30.06V171.4h30.06v137.73Zm41.65-137.73h34.58l-42.83,67,47.15,70.73h-37.53l-42.24-69.35v-.79l40.87-67.59Z"/></g></svg>
